:FULLY-SPECIFIED
:FORCE-ALL-JOINTS-BE-3DOF
:DEGREES
34
root 5.95568 16.8874 -28.0514 9.91712 -1.80229 -2.22657
lfemur -20.3359 1.55455 -19.8445
ltibia 34.2565 -0 0
lfoot -36.0027 4.22487 0.00177428
ltoes 35.9765 -0 0
rfemur -17.4353 5.16713 19.4613
rtibia 31.5835 -0 0
rfoot -27.7693 -17.0808 -0.0399528
rtoes 13.3846 -0 0
lowerback -4.96784 2.5739 -1.24035
upperback -1.94396 3.49066 0.867649
thorax 0.608456 1.74954 1.75596
lowerneck -9.57192 -1.69995 2.74339
upperneck -2.64105 -2.53748 0.602923
head 0.742353 -1.2762 -0.359447
lclavicle 1.79708e-14 1.00833e-15 -3.04962e-30
lhumerus -41.4833 -12.6126 97.1703
lradius 39.054 -0 0
lwrist 5.69573 0 0
lhand -11.643 4.7708 0.0119108
lfingers 7.12502 -0 0
lthumb 14.401 34.2504 0.0113008
rclavicle 1.79708e-14 1.00833e-15 -3.04962e-30
rhumerus -40.8465 -5.04704 -88.5716
rradius 39.2267 -0 0
rwrist 10.7626 0 0
rhand -26.1102 -20.7488 -0.00929504
rfingers 7.12502 -0 0
rthumb 0.439309 -50.725 -0.0089089
35
root 5.94961 16.8892 -28.053 9.94864 -1.77707 -2.19729
lfemur -20.3347 1.52837 -19.8393
ltibia 34.198 -0 0
lfoot -35.91 4.23493 0.00159528
ltoes 35.8723 -0 0
rfemur -17.3638 5.34024 19.4623
rtibia 31.4277 -0 0
rfoot -27.678 -17.3112 -0.0359212
rtoes 13.1024 -0 0
lowerback -5.07111 2.53908 -1.10657
upperback -1.91743 3.43834 0.775533
thorax 0.713726 1.72174 1.59184
lowerneck -9.56213 -1.67662 2.77127
upperneck -2.68461 -2.50902 0.68154
head 0.727672 -1.26135 -0.337944
lclavicle 1.91786e-14 2.33729e-15 -2.74198e-30
lhumerus -41.4733 -12.6754 97.0767
lradius 39.213 -0 0
lwrist 5.81891 0 0
lhand -11.6797 4.59986 0.0107091
lfingers 7.12502 -0 0
lthumb 14.3657 34.0821 0.0101606
rclavicle 1.91786e-14 2.33729e-15 -2.74198e-30
rhumerus -40.7614 -5.05021 -88.7222
rradius 39.1829 -0 0
rwrist 10.7929 0 0
rhand -26.1911 -20.6884 -0.00835733
rfingers 7.12502 -0 0
rthumb 0.361123 -50.665 -0.00801015
36
root 5.94416 16.8909 -28.0552 9.97983 -1.75213 -2.1683
lfemur -20.3335 1.50248 -19.834
ltibia 34.1402 -0 0
lfoot -35.8182 4.24489 0.00140213
ltoes 35.7693 -0 0
rfemur -17.293 5.51153 19.4634
rtibia 31.2737 -0 0
rfoot -27.5878 -17.5391 -0.0315709
rtoes 12.8232 -0 0
lowerback -5.17337 2.50486 -0.974134
upperback -1.89108 3.3866 0.684367
thorax 0.817968 1.69452 1.42939
lowerneck -9.55243 -1.65354 2.79886
upperneck -2.72768 -2.48079 0.759308
head 0.713151 -1.24665 -0.316671
lclavicle 2.03737e-14 3.6523e-15 -2.41e-30
lhumerus -41.4632 -12.7375 96.9841
lradius 39.3704 -0 0
lwrist 5.9408 0 0
lhand -11.7159 4.43072 0.0094123
lfingers 7.12502 -0 0
lthumb 14.3307 33.9155 0.00893027
rclavicle 2.03737e-14 3.6523e-15 -2.41e-30
rhumerus -40.6771 -5.05314 -88.8713
rradius 39.1397 -0 0
rwrist 10.823 0 0
rhand -26.2712 -20.6286 -0.00734542
rfingers 7.12502 -0 0
rthumb 0.28376 -50.6057 -0.00704028
37
root 5.93936 16.8926 -28.058 10.0107 -1.72751 -2.13966
lfemur -20.3323 1.47689 -19.8289
ltibia 34.083 -0 0
lfoot -35.7275 4.25473 0.00119567
ltoes 35.6674 -0 0
rfemur -17.223 5.68072 19.4648
rtibia 31.1214 -0 0
rfoot -27.4986 -17.7642 -0.0269212
rtoes 12.5475 -0 0
lowerback -5.27446 2.47129 -0.843259
upperback -1.86499 3.33554 0.594294
thorax 0.92101 1.66793 1.26887
lowerneck -9.54284 -1.63075 2.82612
upperneck -2.77018 -2.45286 0.836105
head 0.698813 -1.23213 -0.295662
lclavicle 2.15542e-14 4.95125e-15 -2.05514e-30
lhumerus -41.4532 -12.7988 96.8926
lradius 39.5258 -0 0
lwrist 6.06119 0 0
lhand -11.7518 4.26364 0.00802623
lfingers 7.12502 -0 0
lthumb 14.2962 33.7509 0.00761519
rclavicle 2.15542e-14 4.95125e-15 -2.05514e-30
rhumerus -40.5939 -5.05581 -89.0185
rradius 39.0969 -0 0
rwrist 10.8527 0 0
rhand -26.3503 -20.5695 -0.0062638
rfingers 7.12502 -0 0
rthumb 0.207342 -50.5471 -0.0060036
38
root 5.93526 16.8942 -28.0615 10.0411 -1.70326 -2.1114
lfemur -20.3312 1.45167 -19.8238
ltibia 34.0267 -0 0
lfoot -35.6381 4.26443 0.000976843
ltoes 35.567 -0 0
rfemur -17.1541 5.84756 19.4663
rtibia 30.9714 -0 0
rfoot -27.4107 -17.9862 -0.0219934
rtoes 12.2756 -0 0
lowerback -5.37421 2.43841 -0.714158
upperback -1.83917 3.28524 0.505462
thorax 1.02268 1.64199 1.11056
lowerneck -9.53338 -1.60828 2.85299
upperneck -2.81205 -2.42526 0.911806
head 0.68468 -1.2178 -0.27495
lclavicle 2.27182e-14 6.23205e-15 -1.67903e-30
lhumerus -41.4432 -12.8592 96.8023
lradius 39.679 -0 0
lwrist 6.17991 0 0
lhand -11.7871 4.0989 0.00655722
lfingers 7.12502 -0 0
lthumb 14.2622 33.5887 0.00622142
rclavicle 2.27182e-14 6.23205e-15 -1.67903e-30
rhumerus -40.5119 -5.05824 -89.1637
rradius 39.0548 -0 0
rwrist 10.8819 0 0
rhand -26.4284 -20.5113 -0.00511744
rfingers 7.12502 -0 0
rthumb 0.131993 -50.4893 -0.00490485
39
root 5.9319 16.8959 -28.0658 10.071 -1.6794 -2.08358
lfemur -20.33 1.42684 -19.8188
ltibia 33.9713 -0 0
lfoot -35.5501 4.27398 0.000746699
ltoes 35.4682 -0 0
rfemur -17.0861 6.01175 19.468
rtibia 30.8236 -0 0
rfoot -27.3242 -18.2047 -0.0168112
rtoes 12.0079 -0 0
lowerback -5.47245 2.40627 -0.587044
upperback -1.8137 3.23576 0.418016
thorax 1.12282 1.61673 0.954704
lowerneck -9.52405 -1.58618 2.87945
upperneck -2.85322 -2.39804 0.98629
head 0.670776 -1.2037 -0.254569
lclavicle 2.38639e-14 7.49261e-15 -1.28346e-30
lhumerus -41.4333 -12.9187 96.7134
lradius 39.8299 -0 0
lwrist 6.29675 0 0
lhand -11.8219 3.93676 0.00501226
lfingers 7.12502 -0 0
lthumb 14.2287 33.429 0.00475558
rclavicle 2.38639e-14 7.49261e-15 -1.28346e-30
rhumerus -40.4311 -5.06042 -89.3066
rradius 39.0133 -0 0
rwrist 10.9107 0 0
rhand -26.5051 -20.454 -0.00391177
rfingers 7.12502 -0 0
rthumb 0.0578354 -50.4324 -0.00374927
40
root 5.92932 16.8975 -28.0708 10.1004 -1.65597 -2.05623
lfemur -20.3289 1.40245 -19.8139
ltibia 33.9168 -0 0
lfoot -35.4637 4.28336 0.000506359
ltoes 35.3711 -0 0
rfemur -17.0194 6.17303 19.4698
rtibia 30.6786 -0 0
rfoot -27.2393 -18.4193 -0.0113997
rtoes 11.7451 -0 0
lowerback -5.56902 2.37492 -0.462132
upperback -1.7886 3.1872 0.332102
thorax 1.22125 1.59219 0.801569
lowerneck -9.51487 -1.56446 2.90544
upperneck -2.89363 -2.37125 1.05943
head 0.657123 -1.18984 -0.234552
lclavicle 2.49892e-14 8.73083e-15 -8.70357e-31
lhumerus -41.4235 -12.9771 96.6261
lradius 39.978 -0 0
lwrist 6.41152 0 0
lhand -11.856 3.77749 0.00339891
lfingers 7.12502 -0 0
lthumb 14.1958 33.2722 0.00322485
rclavicle 2.49892e-14 8.73083e-15 -8.70357e-31
rhumerus -40.3518 -5.06238 -89.447
rradius 38.9726 -0 0
rwrist 10.939 0 0
rhand -26.5806 -20.3977 -0.00265268
rfingers 7.12502 -0 0
rthumb -0.0150067 -50.3765 -0.00254249
41
root 5.92755 16.899 -28.0766 10.1293 -1.63302 -2.02942
lfemur -20.3279 1.37854 -19.8091
ltibia 33.8634 -0 0
lfoot -35.379 4.29255 0.00025703
ltoes 35.276 -0 0
rfemur -16.9539 6.33113 19.4719
rtibia 30.5363 -0 0
rfoot -27.1561 -18.6297 -0.00578631
rtoes 11.4874 -0 0
lowerback -5.66375 2.34439 -0.339636
upperback -1.76392 3.13964 0.247866
thorax 1.31779 1.56839 0.651416
lowerneck -9.50587 -1.54318 2.93092
upperneck -2.9332 -2.34494 1.13111
head 0.643744 -1.17625 -0.214934
lclavicle 2.60924e-14 9.94463e-15 -4.41801e-31
lhumerus -41.4137 -13.0343 96.5404
lradius 40.1232 -0 0
lwrist 6.52402 0 0
lhand -11.8895 3.62137 0.00172527
lfingers 7.12502 -0 0
lthumb 14.1635 33.1184 0.00163692
rclavicle 2.60924e-14 9.94463e-15 -4.41801e-31
rhumerus -40.274 -5.0641 -89.5846
rradius 38.9327 -0 0
rwrist 10.9668 0 0
rhand -26.6545 -20.3425 -0.00134651
rfingers 7.12502 -0 0
rthumb -0.0864106 -50.3218 -0.00129058
42
root 5.92664 16.9005 -28.0832 10.1575 -1.61059 -2.00318
lfemur -20.3268 1.35516 -19.8044
ltibia 33.8112 0 0
lfoot -35.2961 4.30154 0
ltoes 35.1829 0 0
rfemur -16.8899 6.48577 19.474
rtibia 30.3972 0 0
rfoot -27.0747 -18.8354 0
rtoes 11.2353 0 0
lowerback -5.75647 2.31472 -0.219771
upperback -1.73972 3.09315 0.165455
thorax 1.41229 1.54535 0.504507
lowerneck -9.49706 -1.52237 2.95585
upperneck -2.97188 -2.31916 1.20121
head 0.630662 -1.16295 -0.195747
lclavicle 2.71714e-14 1.11319e-14 0
lhumerus -41.4041 -13.0903 96.4566
lradius 40.2653 0 0
lwrist 6.63407 0 0
lhand -11.9222 3.46866 0
lfingers 7.12502 0 0
lthumb 14.132 32.968 0
rclavicle 2.71714e-14 1.11319e-14 0
rhumerus -40.1979 -5.06561 -89.7192
rradius 38.8936 0 0
rwrist 10.9939 0 0
rhand -26.7268 -20.2885 0
rfingers 7.12502 0 0
rthumb -0.156253 -50.2682 0
43
root 5.92831 16.8988 -28.0751 10.1801 -1.52769 -2.04034
lfemur -20.5616 1.45315 -19.6779
ltibia 33.9517 -0 0
lfoot -35.0478 4.30573 -0.000176716
ltoes 34.9473 -0 0
rfemur -16.8044 6.4471 19.5244
rtibia 30.2873 -0 0
rfoot -27.046 -18.9185 0.00280515
rtoes 10.8459 -0 0
lowerback -5.76962 2.31844 -0.116754
upperback -1.72968 3.09214 0.128745
thorax 1.44176 1.54508 0.410811
lowerneck -9.50485 -1.53742 2.97186
upperneck -3.02009 -2.34004 1.23884
head 0.616675 -1.17348 -0.186706
lclavicle 2.72413e-14 1.17284e-14 2.27271e-31
lhumerus -41.4142 -13.0588 96.3536
lradius 40.3923 -0 0
lwrist 6.7217 0 0
lhand -11.9276 3.37865 -0.000984734
lfingers 7.12502 -0 0
lthumb 14.1268 32.8784 -0.000941173
rclavicle 2.72413e-14 1.17284e-14 2.27271e-31
rhumerus -40.124 -4.95849 -89.7854
rradius 38.9396 -0 0
rwrist 10.9606 0 0
rhand -26.7221 -20.2737 0.000354072
rfingers 7.12502 -0 0
rthumb -0.151688 -50.2533 0.00034362
44
root 5.93229 16.8966 -28.0651 10.2034 -1.43838 -2.08201
lfemur -20.8172 1.56159 -19.5408
ltibia 34.1073 -0 0
lfoot -34.7812 4.30988 -0.000375647
ltoes 34.6948 -0 0
rfemur -16.7142 6.39776 19.5791
rtibia 30.1739 -0 0
rfoot -27.0186 -18.9995 0.00562563
rtoes 10.4332 -0 0
lowerback -5.77968 2.32387 -0.0100214
upperback -1.71985 3.09318 0.0925378
thorax 1.46952 1.54588 0.31548
lowerneck -9.51376 -1.55477 2.98816
upperneck -3.07087 -2.36396 1.27664
head 0.602034 -1.18555 -0.177735
lclavicle 2.72678e-14 1.23237e-14 4.54305e-31
lhumerus -41.4257 -13.022 96.2453
lradius 40.5242 -0 0
lwrist 6.81212 0 0
lhand -11.932 3.2876 -0.00198295
lfingers 7.12502 -0 0
lthumb 14.1225 32.7877 -0.00189582
rclavicle 2.72678e-14 1.23237e-14 4.54305e-31
rhumerus -40.0471 -4.84162 -89.8512
rradius 38.9916 -0 0
rwrist 10.9231 0 0
rhand -26.7136 -20.26 0.000674315
rfingers 7.12502 -0 0
rthumb -0.143497 -50.2396 0.000655175
45
root 5.93841 16.8941 -28.0533 10.2273 -1.34293 -2.12805
lfemur -21.0928 1.68029 -19.3935
ltibia 34.2773 -0 0
lfoot -34.4969 4.31398 -0.000597733
ltoes 34.4264 -0 0
rfemur -16.6197 6.33785 19.6379
rtibia 30.0574 -0 0
rfoot -26.9924 -19.0783 0.00844709
rtoes 9.99848 -0 0
lowerback -5.78657 2.33099 0.100065
upperback -1.71027 3.09629 0.0569666
thorax 1.49546 1.54775 0.218845
lowerneck -9.52374 -1.57438 3.00469
upperneck -3.12404 -2.39083 1.31449
head 0.586787 -1.19915 -0.168864
lclavicle 2.72506e-14 1.29156e-14 6.7961e-31
lhumerus -41.4386 -12.9798 96.1319
lradius 40.6604 -0 0
lwrist 6.90502 0 0
lhand -11.9354 3.19582 -0.00298875
lfingers 7.12502 -0 0
lthumb 14.1193 32.6961 -0.00285833
rclavicle 2.72506e-14 1.29156e-14 6.7961e-31
rhumerus -39.9674 -4.71536 -89.9163
rradius 39.0493 -0 0
rwrist 10.8814 0 0
rhand -26.7014 -20.2476 0.000958339
rfingers 7.12502 -0 0
rthumb -0.131691 -50.2271 0.00093234
